<svg id="Layer_1" data-name="Layer 1" xmlns="http://www.w3.org/2000/svg" xmlns:xlink="http://www.w3.org/1999/xlink" viewBox="0 0 468.16 100.59"><defs><style>.cls-1{fill:#071021;}.cls-2{fill:url(#linear-gradient);}.cls-3{fill:url(#linear-gradient-2);}.cls-4{fill:url(#linear-gradient-3);}.cls-5{fill:url(#linear-gradient-4);}.cls-6{fill:url(#linear-gradient-5);}.cls-7{fill:url(#linear-gradient-6);}.cls-8{fill:url(#linear-gradient-7);}.cls-9{fill:url(#linear-gradient-8);}.cls-10{fill:url(#linear-gradient-9);}.cls-11{fill:url(#linear-gradient-10);}.cls-12{fill:url(#linear-gradient-11);}.cls-13{fill:url(#linear-gradient-12);}.cls-14{fill:url(#linear-gradient-13);}.cls-15{fill:url(#linear-gradient-14);}.cls-16{fill:url(#linear-gradient-15);}.cls-17{fill:url(#linear-gradient-16);}.cls-18{fill:url(#linear-gradient-17);}.cls-19{fill:url(#linear-gradient-18);}.cls-20{fill:url(#linear-gradient-19);}.cls-21{fill:url(#linear-gradient-20);}.cls-22{fill:url(#linear-gradient-21);}.cls-23{fill:url(#linear-gradient-22);}.cls-24{fill:url(#linear-gradient-23);}.cls-25{fill:url(#linear-gradient-24);}.cls-26{fill:url(#linear-gradient-25);}.cls-27{fill:url(#linear-gradient-26);}.cls-28{fill:url(#linear-gradient-27);}.cls-29{fill:url(#linear-gradient-28);}.cls-30{fill:url(#linear-gradient-29);}.cls-31{fill:url(#linear-gradient-30);}.cls-32{fill:url(#linear-gradient-31);}.cls-33{fill:url(#linear-gradient-32);}.cls-34{fill:url(#linear-gradient-33);}.cls-35{fill:url(#linear-gradient-34);}.cls-36{fill:url(#linear-gradient-35);}.cls-37{fill:url(#linear-gradient-36);}.cls-38{fill:url(#linear-gradient-37);}.cls-39{fill:url(#linear-gradient-38);}.cls-40{fill:url(#linear-gradient-39);}.cls-41{fill:url(#linear-gradient-40);}.cls-42{fill:url(#linear-gradient-41);}.cls-43{fill:url(#linear-gradient-42);}.cls-44{fill:url(#linear-gradient-43);}.cls-45{fill:url(#linear-gradient-44);}.cls-46{fill:url(#linear-gradient-45);}.cls-47{fill:url(#linear-gradient-46);}.cls-48{fill:url(#linear-gradient-47);}.cls-49{fill:url(#linear-gradient-48);}.cls-50{fill:url(#linear-gradient-49);}.cls-51{fill:url(#linear-gradient-50);}.cls-52{fill:url(#linear-gradient-51);}.cls-53{fill:url(#linear-gradient-52);}.cls-54{font-size:66.96px;fill:none;stroke:#fefefe;stroke-miterlimit:10;stroke-width:0.25px;font-family:CreatoDisplay-Bold, Creato Display;font-weight:700;}.cls-55{fill:#fefefe;}</style><linearGradient id="linear-gradient" x1="434.97" y1="17301.39" x2="-297.05" y2="17459.34" gradientTransform="translate(0 -17321.52)" gradientUnits="userSpaceOnUse"><stop offset="0" stop-color="#bdfffd"/><stop offset="0.2" stop-color="#64c8ff"/><stop offset="0.22" stop-color="#62c0fd"/><stop offset="0.32" stop-color="#5796f1"/><stop offset="0.42" stop-color="#4f78e9"/><stop offset="0.51" stop-color="#4b66e4"/><stop offset="0.57" stop-color="#495fe2"/><stop offset="0.62" stop-color="#3f54c6"/><stop offset="0.75" stop-color="#2c3d8e"/><stop offset="0.86" stop-color="#1e2d65"/><stop offset="0.95" stop-color="#15234b"/><stop offset="1" stop-color="#121f42"/></linearGradient><linearGradient id="linear-gradient-2" x1="437.67" y1="17849.19" x2="-294.35" y2="18007.13" gradientTransform="matrix(1, 0, 0, -1, 0, 17997.58)" xlink:href="#linear-gradient"/><linearGradient id="linear-gradient-3" x1="439.77" y1="17858.93" x2="-292.25" y2="18016.87" gradientTransform="matrix(1, 0, 0, -1, 0, 17997.58)" xlink:href="#linear-gradient"/><linearGradient id="linear-gradient-4" x1="441.69" y1="17867.79" x2="-290.34" y2="18025.74" gradientTransform="matrix(1, 0, 0, -1, 0, 17997.58)" xlink:href="#linear-gradient"/><linearGradient id="linear-gradient-5" x1="443" y1="17873.87" x2="-289.02" y2="18031.81" gradientTransform="matrix(1, 0, 0, -1, 0, 17997.58)" xlink:href="#linear-gradient"/><linearGradient id="linear-gradient-6" x1="444.12" y1="17879.09" x2="-287.9" y2="18037.03" gradientTransform="matrix(1, 0, 0, -1, 0, 17997.58)" xlink:href="#linear-gradient"/><linearGradient id="linear-gradient-7" x1="445.75" y1="17886.64" x2="-286.27" y2="18044.58" gradientTransform="matrix(1, 0, 0, -1, 0, 17997.58)" xlink:href="#linear-gradient"/><linearGradient id="linear-gradient-8" x1="446.99" y1="15731.87" x2="-285.03" y2="15889.81" gradientTransform="translate(0 -15696.28)" xlink:href="#linear-gradient"/><linearGradient id="linear-gradient-9" x1="448.12" y1="17897.58" x2="-283.91" y2="18055.53" gradientTransform="matrix(1, 0, 0, -1, 0, 17997.58)" xlink:href="#linear-gradient"/><linearGradient id="linear-gradient-10" x1="449.05" y1="15741.4" x2="-282.97" y2="15899.34" gradientTransform="translate(0 -15696.28)" xlink:href="#linear-gradient"/><linearGradient id="linear-gradient-11" x1="450.63" y1="17909.25" x2="-281.39" y2="18067.19" gradientTransform="matrix(1, 0, 0, -1, 0, 17997.58)" xlink:href="#linear-gradient"/><linearGradient id="linear-gradient-12" x1="451.94" y1="17915.29" x2="-280.09" y2="18073.23" gradientTransform="matrix(1, 0, 0, -1, 0, 17997.58)" xlink:href="#linear-gradient"/><linearGradient id="linear-gradient-13" x1="453.76" y1="17923.75" x2="-278.26" y2="18081.7" gradientTransform="matrix(1, 0, 0, -1, 0, 17997.58)" xlink:href="#linear-gradient"/><linearGradient id="linear-gradient-14" x1="511.94" y1="17242.61" x2="-176.81" y2="17461.86" gradientTransform="translate(0 -17339)" xlink:href="#linear-gradient"/><linearGradient id="linear-gradient-15" x1="517.52" y1="17795.44" x2="-171.19" y2="18014.67" gradientTransform="matrix(1, 0, 0, -1, 0, 17997.58)" xlink:href="#linear-gradient"/><linearGradient id="linear-gradient-16" x1="521.88" y1="17809.11" x2="-166.87" y2="18028.36" gradientTransform="matrix(1, 0, 0, -1, 0, 17997.58)" xlink:href="#linear-gradient"/><linearGradient id="linear-gradient-17" x1="525.83" y1="17821.54" x2="-162.92" y2="18040.78" gradientTransform="matrix(1, 0, 0, -1, 0, 17997.58)" xlink:href="#linear-gradient"/><linearGradient id="linear-gradient-18" x1="528.54" y1="17830.03" x2="-160.21" y2="18049.28" gradientTransform="matrix(1, 0, 0, -1, 0, 17997.58)" xlink:href="#linear-gradient"/><linearGradient id="linear-gradient-19" x1="530.91" y1="17837.5" x2="-157.84" y2="18056.75" gradientTransform="matrix(1, 0, 0, -1, 0, 17997.58)" xlink:href="#linear-gradient"/><linearGradient id="linear-gradient-20" x1="534.24" y1="17847.94" x2="-154.51" y2="18067.18" gradientTransform="matrix(1, 0, 0, -1, 0, 17997.58)" xlink:href="#linear-gradient"/><linearGradient id="linear-gradient-21" x1="536.8" y1="15691.41" x2="-151.95" y2="15910.66" gradientTransform="translate(0 -15709.71)" xlink:href="#linear-gradient"/><linearGradient id="linear-gradient-22" x1="539.12" y1="17863.28" x2="-149.63" y2="18082.53" gradientTransform="matrix(1, 0, 0, -1, 0, 17997.58)" xlink:href="#linear-gradient"/><linearGradient id="linear-gradient-23" x1="541.06" y1="15704.77" x2="-147.69" y2="15924.02" gradientTransform="translate(0 -15709.71)" xlink:href="#linear-gradient"/><linearGradient id="linear-gradient-24" x1="544.33" y1="17879.64" x2="-144.42" y2="18098.88" gradientTransform="matrix(1, 0, 0, -1, 0, 17997.58)" xlink:href="#linear-gradient"/><linearGradient id="linear-gradient-25" x1="547.02" y1="17888.1" x2="-141.73" y2="18107.35" gradientTransform="matrix(1, 0, 0, -1, 0, 17997.58)" xlink:href="#linear-gradient"/><linearGradient id="linear-gradient-26" x1="550.81" y1="17899.99" x2="-137.94" y2="18119.24" gradientTransform="matrix(1, 0, 0, -1, 0, 17997.58)" xlink:href="#linear-gradient"/><linearGradient id="linear-gradient-27" x1="-196.55" y1="31.79" x2="526.75" y2="26.36" gradientUnits="userSpaceOnUse"><stop offset="0" stop-color="#495fe2"/><stop offset="0.07" stop-color="#4e5fde"/><stop offset="0.15" stop-color="#5e5dd3"/><stop offset="0.24" stop-color="#775cc0"/><stop offset="0.34" stop-color="#9a59a6"/><stop offset="0.44" stop-color="#c75685"/><stop offset="0.51" stop-color="#ea536c"/><stop offset="0.78" stop-color="#ff8a61"/><stop offset="0.83" stop-color="#fd8560"/><stop offset="0.88" stop-color="#f8765c"/><stop offset="0.93" stop-color="#f05d55"/><stop offset="0.99" stop-color="#e43b4c"/><stop offset="1" stop-color="#e2344a"/></linearGradient><linearGradient id="linear-gradient-28" x1="-196.54" y1="32.24" x2="526.76" y2="26.82" xlink:href="#linear-gradient-27"/><linearGradient id="linear-gradient-29" x1="-196.54" y1="32.59" x2="526.76" y2="27.17" xlink:href="#linear-gradient-27"/><linearGradient id="linear-gradient-30" x1="-196.54" y1="32.92" x2="526.76" y2="27.49" xlink:href="#linear-gradient-27"/><linearGradient id="linear-gradient-31" x1="-196.53" y1="33.14" x2="526.76" y2="27.71" xlink:href="#linear-gradient-27"/><linearGradient id="linear-gradient-32" x1="-196.53" y1="33.32" x2="526.76" y2="27.9" xlink:href="#linear-gradient-27"/><linearGradient id="linear-gradient-33" x1="-196.53" y1="33.6" x2="526.77" y2="28.18" xlink:href="#linear-gradient-27"/><linearGradient id="linear-gradient-34" x1="-196.53" y1="33.81" x2="526.77" y2="28.39" xlink:href="#linear-gradient-27"/><linearGradient id="linear-gradient-35" x1="-196.53" y1="34" x2="526.77" y2="28.58" xlink:href="#linear-gradient-27"/><linearGradient id="linear-gradient-36" x1="-196.53" y1="34.16" x2="526.77" y2="28.74" xlink:href="#linear-gradient-27"/><linearGradient id="linear-gradient-37" x1="-196.53" y1="34.42" x2="526.77" y2="29" xlink:href="#linear-gradient-27"/><linearGradient id="linear-gradient-38" x1="-196.52" y1="34.64" x2="526.77" y2="29.22" xlink:href="#linear-gradient-27"/><linearGradient id="linear-gradient-39" x1="-196.52" y1="34.95" x2="526.78" y2="29.53" xlink:href="#linear-gradient-27"/><linearGradient id="linear-gradient-40" x1="-58.29" y1="39.55" x2="518.58" y2="34.8" xlink:href="#linear-gradient-27"/><linearGradient id="linear-gradient-41" x1="-58.29" y1="40.05" x2="518.59" y2="35.3" xlink:href="#linear-gradient-27"/><linearGradient id="linear-gradient-42" x1="-58.29" y1="40.43" x2="518.59" y2="35.69" xlink:href="#linear-gradient-27"/><linearGradient id="linear-gradient-43" x1="-58.28" y1="40.79" x2="518.59" y2="36.04" xlink:href="#linear-gradient-27"/><linearGradient id="linear-gradient-44" x1="-58.28" y1="41.03" x2="518.6" y2="36.28" xlink:href="#linear-gradient-27"/><linearGradient id="linear-gradient-45" x1="-58.28" y1="41.23" x2="518.6" y2="36.48" xlink:href="#linear-gradient-27"/><linearGradient id="linear-gradient-46" x1="-58.28" y1="41.54" x2="518.6" y2="36.79" xlink:href="#linear-gradient-27"/><linearGradient id="linear-gradient-47" x1="-58.27" y1="41.77" x2="518.6" y2="37.02" xlink:href="#linear-gradient-27"/><linearGradient id="linear-gradient-48" x1="-58.27" y1="41.98" x2="518.6" y2="37.23" xlink:href="#linear-gradient-27"/><linearGradient id="linear-gradient-49" x1="-58.27" y1="42.15" x2="518.6" y2="37.4" xlink:href="#linear-gradient-27"/><linearGradient id="linear-gradient-50" x1="-58.27" y1="42.44" x2="518.61" y2="37.7" xlink:href="#linear-gradient-27"/><linearGradient id="linear-gradient-51" x1="-58.27" y1="42.68" x2="518.61" y2="37.94" xlink:href="#linear-gradient-27"/><linearGradient id="linear-gradient-52" x1="-58.26" y1="43.02" x2="518.61" y2="38.27" xlink:href="#linear-gradient-27"/></defs><rect class="cls-1" y="39.17" width="468.16" height="61.42"/><path class="cls-2" d="M30.46,53.38H20V70.12H30.46c6,0,9.31-2.61,9.31-8.37S36.49,53.38,30.46,53.38ZM31.74,77H20V94.23H10.91V46.55H31.74c10.58,0,17.14,5.43,17.14,15.2S42.32,77,31.74,77Z"/><path class="cls-3" d="M76.13,53.31c-9.58,0-14.53,6.1-14.53,17.08s4.95,17.07,14.53,17.07,14.6-6.09,14.6-17.07S85.77,53.31,76.13,53.31Zm0-7.43c15.2,0,23.7,10,23.7,24.51S91.33,94.9,76.13,94.9s-23.64-10-23.64-24.51S61,45.88,76.13,45.88Z"/><path class="cls-4" d="M103.45,61.88h8.83c.74-6.29,3.62-9.17,11-9.17,7.23,0,10.38,3.08,10.38,7.5,0,3.28-1.81,5.43-9.11,6.5l-6.09.87c-10,1.4-13.86,4.89-13.86,12.65,0,8.57,6.09,14.67,18.48,14.67s18.48-6,18.48-15.34H133c-.61,5.63-3.69,8.51-10,8.51s-9.17-2.95-9.17-7.3c0-3.28,1.54-5,7.9-5.83l6.09-.87c9.71-1.4,15.07-5.09,15.07-13.32,0-8.91-6.43-14.87-19.69-14.87S103.45,51.71,103.45,61.88Z"/><path class="cls-5" d="M146.43,61.88h8.84c.74-6.29,3.62-9.17,11-9.17,7.23,0,10.38,3.08,10.38,7.5,0,3.28-1.81,5.43-9.11,6.5l-6.09.87c-10,1.4-13.86,4.89-13.86,12.65,0,8.57,6.09,14.67,18.48,14.67s18.48-6,18.48-15.34H176c-.6,5.63-3.68,8.51-10,8.51s-9.17-2.95-9.17-7.3c0-3.28,1.54-5,7.9-5.83l6.09-.87c9.71-1.4,15.07-5.09,15.07-13.32,0-8.91-6.43-14.87-19.69-14.87S146.43,51.71,146.43,61.88Z"/><rect class="cls-6" x="191.29" y="46.55" width="9.11" height="47.68"/><path class="cls-7" d="M237.3,80.77c0-4.29-2.62-6.56-7.71-6.56H216.87V87.4h12.72C234.68,87.4,237.3,85.05,237.3,80.77Zm10.44-21c0,5.69-3.08,10.11-9.3,11.32,5.35,1.27,8,5.22,8,10.45,0,7.63-5.62,12.72-15.8,12.72H207.77V46.55h24.17C242.12,46.55,247.74,52.11,247.74,59.74Zm-9.11.67c0-4.28-2.61-7-7.7-7H216.87V67.51h14.06C236,67.51,238.63,64.7,238.63,60.41Z"/><rect class="cls-8" x="253.23" y="46.55" width="9.11" height="47.68"/><polygon class="cls-9" points="269.7 94.23 269.7 46.55 278.81 46.55 278.81 86.8 301.64 86.8 301.64 94.23 269.7 94.23"/><rect class="cls-10" x="306.33" y="46.55" width="9.11" height="47.68"/><polygon class="cls-11" points="334.58 94.23 334.58 53.99 320.12 53.99 320.12 46.55 358.22 46.55 358.22 53.99 343.69 53.99 343.69 94.23 334.58 94.23"/><rect class="cls-12" x="362.91" y="46.55" width="9.11" height="47.68"/><polygon class="cls-13" points="379.38 46.55 379.38 94.23 414.13 94.23 414.13 86.79 388.48 86.79 388.48 74.34 411.99 74.34 411.99 67.38 388.48 67.38 388.48 53.98 414.13 53.98 414.13 46.55 379.38 46.55"/><path class="cls-14" d="M417.88,61.88h8.84c.73-6.29,3.61-9.17,11-9.17,7.24,0,10.38,3.08,10.38,7.5,0,3.28-1.8,5.43-9.1,6.5l-6.1.87c-10,1.4-13.86,4.89-13.86,12.65,0,8.57,6.1,14.67,18.49,14.67S456,88.87,456,79.56h-8.63c-.61,5.63-3.69,8.51-10.05,8.51s-9.17-2.95-9.17-7.3c0-3.28,1.54-5,7.9-5.83l6.09-.87c9.71-1.4,15.07-5.09,15.07-13.32,0-8.91-6.43-14.87-19.68-14.87S417.88,51.71,417.88,61.88Z"/><rect class="cls-1" y="30.51" width="468.16" height="61.03"/><path class="cls-15" d="M30.46,44.64H20V61.38H30.46c6,0,9.31-2.61,9.31-8.37S36.49,44.64,30.46,44.64Zm1.28,23.57H20V85.49H10.91V37.81H31.74c10.58,0,17.14,5.42,17.14,15.2S42.32,68.21,31.74,68.21Z"/><path class="cls-16" d="M76.13,44.57c-9.58,0-14.53,6.09-14.53,17.08s4.95,17.07,14.53,17.07,14.6-6.09,14.6-17.07S85.77,44.57,76.13,44.57Zm0-7.43c15.2,0,23.7,10,23.7,24.51s-8.5,24.5-23.7,24.5-23.64-10-23.64-24.5S61,37.14,76.13,37.14Z"/><path class="cls-17" d="M103.45,53.14h8.83c.74-6.29,3.62-9.17,11-9.17,7.23,0,10.38,3.08,10.38,7.5,0,3.28-1.81,5.42-9.11,6.49l-6.09.88c-10,1.4-13.86,4.88-13.86,12.65,0,8.57,6.09,14.66,18.48,14.66s18.48-6,18.48-15.33H133c-.61,5.63-3.69,8.5-10,8.5s-9.17-2.94-9.17-7.3c0-3.28,1.54-5,7.9-5.82l6.09-.87c9.71-1.41,15.07-5.09,15.07-13.32,0-8.91-6.43-14.87-19.69-14.87S103.45,43,103.45,53.14Z"/><path class="cls-18" d="M146.43,53.14h8.84c.74-6.29,3.62-9.17,11-9.17,7.23,0,10.38,3.08,10.38,7.5,0,3.28-1.81,5.42-9.11,6.49l-6.09.88c-10,1.4-13.86,4.88-13.86,12.65,0,8.57,6.09,14.66,18.48,14.66s18.48-6,18.48-15.33H176c-.6,5.63-3.68,8.5-10,8.5s-9.17-2.94-9.17-7.3c0-3.28,1.54-5,7.9-5.82l6.09-.87c9.71-1.41,15.07-5.09,15.07-13.32,0-8.91-6.43-14.87-19.69-14.87S146.43,43,146.43,53.14Z"/><rect class="cls-19" x="191.29" y="37.81" width="9.11" height="47.68"/><path class="cls-20" d="M237.3,72c0-4.28-2.62-6.56-7.71-6.56H216.87v13.2h12.72C234.68,78.66,237.3,76.31,237.3,72Zm10.44-21c0,5.69-3.08,10.11-9.3,11.32,5.35,1.27,8,5.22,8,10.44,0,7.64-5.62,12.73-15.8,12.73H207.77V37.81h24.17C242.12,37.81,247.74,43.37,247.74,51Zm-9.11.67c0-4.29-2.61-7-7.7-7H216.87V58.77h14.06C236,58.77,238.63,56,238.63,51.67Z"/><rect class="cls-21" x="253.23" y="37.81" width="9.11" height="47.68"/><polygon class="cls-22" points="269.7 85.48 269.7 37.81 278.81 37.81 278.81 78.05 301.64 78.05 301.64 85.48 269.7 85.48"/><rect class="cls-23" x="306.33" y="37.81" width="9.11" height="47.68"/><polygon class="cls-24" points="334.58 85.48 334.58 45.24 320.12 45.24 320.12 37.81 358.22 37.81 358.22 45.24 343.69 45.24 343.69 85.48 334.58 85.48"/><rect class="cls-25" x="362.91" y="37.81" width="9.11" height="47.68"/><polygon class="cls-26" points="379.38 37.81 379.38 85.48 414.13 85.48 414.13 78.05 388.48 78.05 388.48 65.6 411.99 65.6 411.99 58.63 388.48 58.63 388.48 45.24 414.13 45.24 414.13 37.81 379.38 37.81"/><path class="cls-27" d="M417.88,53.14h8.84c.73-6.29,3.61-9.17,11-9.17,7.24,0,10.38,3.08,10.38,7.5,0,3.28-1.8,5.42-9.1,6.49l-6.1.88c-10,1.4-13.86,4.88-13.86,12.65,0,8.57,6.1,14.66,18.49,14.66S456,80.13,456,70.82h-8.63c-.61,5.63-3.69,8.5-10.05,8.5s-9.17-2.94-9.17-7.3c0-3.28,1.54-5,7.9-5.82l6.09-.87c9.71-1.41,15.07-5.09,15.07-13.32,0-8.91-6.43-14.87-19.68-14.87S417.88,43,417.88,53.14Z"/><rect class="cls-1" width="468.16" height="61.42"/><path class="cls-28" d="M30.46,13.19H20V29.93H30.46c6,0,9.31-2.61,9.31-8.37S36.49,13.19,30.46,13.19Zm1.28,23.57H20V54H10.91V6.36H31.74c10.58,0,17.14,5.42,17.14,15.2S42.32,36.76,31.74,36.76Z"/><path class="cls-29" d="M90.73,30.2c0-11-5-17.08-14.6-17.08S61.6,19.21,61.6,30.2s4.95,17.07,14.53,17.07S90.73,41.18,90.73,30.2Zm-38.24,0c0-14.53,8.5-24.51,23.64-24.51s23.7,10,23.7,24.51-8.5,24.5-23.7,24.5S52.49,44.73,52.49,30.2Z"/><path class="cls-30" d="M103.45,38.7h8.83c.74,6.3,3.62,9.17,11,9.17,7.23,0,10.38-3.08,10.38-7.5,0-3.28-1.81-5.42-9.11-6.49L118.51,33c-10-1.41-13.86-4.89-13.86-12.66,0-8.57,6.09-14.66,18.48-14.66s18.48,6,18.48,15.33H133c-.61-5.62-3.69-8.5-10-8.5s-9.17,3-9.17,7.3c0,3.28,1.54,4.95,7.9,5.82l6.09.87c9.71,1.41,15.07,5.09,15.07,13.33,0,8.9-6.43,14.86-19.69,14.86S103.45,48.88,103.45,38.7Z"/><path class="cls-31" d="M146.43,38.7h8.84c.74,6.3,3.62,9.17,11,9.17,7.23,0,10.38-3.08,10.38-7.5,0-3.28-1.81-5.42-9.11-6.49L161.5,33c-10-1.41-13.86-4.89-13.86-12.66,0-8.57,6.09-14.66,18.48-14.66s18.48,6,18.48,15.33H176c-.6-5.62-3.68-8.5-10-8.5s-9.17,3-9.17,7.3c0,3.28,1.54,4.95,7.9,5.82l6.09.87c9.71,1.41,15.07,5.09,15.07,13.33,0,8.9-6.43,14.86-19.69,14.86S146.43,48.88,146.43,38.7Z"/><rect class="cls-32" x="191.29" y="6.36" width="9.11" height="47.68"/><path class="cls-33" d="M229.59,13.19H216.87V26.38h12.72c5.09,0,7.71-2.28,7.71-6.56S234.68,13.19,229.59,13.19ZM231.94,54H207.77V6.36H230.6c10.18,0,15.8,5.09,15.8,12.72,0,5.22-2.61,9.17-8,10.45,6.22,1.2,9.3,5.62,9.3,11.31C247.74,48.48,242.12,54,231.94,54Zm-1-21H216.87V47.2h14.06c5.09,0,7.7-2.74,7.7-7S236,33.08,230.93,33.08Z"/><rect class="cls-34" x="253.23" y="6.36" width="9.11" height="47.68"/><polygon class="cls-35" points="269.7 54.03 269.7 6.36 278.81 6.36 278.81 46.6 301.64 46.6 301.64 54.03 269.7 54.03"/><rect class="cls-36" x="306.33" y="6.36" width="9.11" height="47.68"/><polygon class="cls-37" points="334.58 54.03 334.58 13.79 320.12 13.79 320.12 6.36 358.22 6.36 358.22 13.79 343.69 13.79 343.69 54.03 334.58 54.03"/><rect class="cls-38" x="362.91" y="6.36" width="9.11" height="47.68"/><polygon class="cls-39" points="379.38 54.03 379.38 6.36 414.13 6.36 414.13 13.79 388.48 13.79 388.48 26.25 411.99 26.25 411.99 33.21 388.48 33.21 388.48 46.6 414.13 46.6 414.13 54.03 379.38 54.03"/><path class="cls-40" d="M417.88,38.7h8.84c.73,6.3,3.61,9.17,11,9.17,7.24,0,10.38-3.08,10.38-7.5,0-3.28-1.8-5.42-9.1-6.49l-6.1-.87c-10-1.41-13.86-4.89-13.86-12.66,0-8.57,6.1-14.66,18.49-14.66S456,11.72,456,21h-8.63c-.61-5.62-3.69-8.5-10.05-8.5s-9.17,3-9.17,7.3c0,3.28,1.54,4.95,7.9,5.82l6.09.87c9.71,1.41,15.07,5.09,15.07,13.33,0,8.9-6.43,14.86-19.68,14.86S417.88,48.88,417.88,38.7Z"/><rect class="cls-1" y="9.04" width="468.16" height="61.03"/><path class="cls-41" d="M30.46,21.93H20V38.67H30.46c6,0,9.31-2.61,9.31-8.37S36.49,21.93,30.46,21.93ZM31.74,45.5H20V62.78H10.91V15.1H31.74c10.58,0,17.14,5.43,17.14,15.2S42.32,45.5,31.74,45.5Z"/><path class="cls-42" d="M90.73,38.94c0-11-5-17.07-14.6-17.07S61.6,28,61.6,38.94,66.55,56,76.13,56,90.73,49.92,90.73,38.94Zm-38.24,0c0-14.53,8.5-24.51,23.64-24.51s23.7,10,23.7,24.51-8.5,24.51-23.7,24.51S52.49,53.47,52.49,38.94Z"/><path class="cls-43" d="M103.45,47.45h8.83c.74,6.29,3.62,9.17,11,9.17,7.23,0,10.38-3.08,10.38-7.5,0-3.28-1.81-5.43-9.11-6.5l-6.09-.87c-10-1.4-13.86-4.89-13.86-12.65,0-8.57,6.09-14.67,18.48-14.67s18.48,6,18.48,15.34H133c-.61-5.63-3.69-8.51-10-8.51s-9.17,2.95-9.17,7.3c0,3.28,1.54,5,7.9,5.83l6.09.87c9.71,1.4,15.07,5.09,15.07,13.32,0,8.91-6.43,14.87-19.69,14.87S103.45,57.62,103.45,47.45Z"/><path class="cls-44" d="M146.43,47.45h8.84c.74,6.29,3.62,9.17,11,9.17,7.23,0,10.38-3.08,10.38-7.5,0-3.28-1.81-5.43-9.11-6.5l-6.09-.87c-10-1.4-13.86-4.89-13.86-12.65,0-8.57,6.09-14.67,18.48-14.67s18.48,6,18.48,15.34H176c-.6-5.63-3.68-8.51-10-8.51s-9.17,2.95-9.17,7.3c0,3.28,1.54,5,7.9,5.83l6.09.87c9.71,1.4,15.07,5.09,15.07,13.32,0,8.91-6.43,14.87-19.69,14.87S146.43,57.62,146.43,47.45Z"/><rect class="cls-45" x="191.29" y="15.1" width="9.11" height="47.68"/><path class="cls-46" d="M229.59,21.93H216.87V35.12h12.72c5.09,0,7.71-2.27,7.71-6.56S234.68,21.93,229.59,21.93Zm2.35,40.85H207.77V15.1H230.6c10.18,0,15.8,5.09,15.8,12.72,0,5.23-2.61,9.18-8,10.45,6.22,1.21,9.3,5.63,9.3,11.32C247.74,57.22,242.12,62.78,231.94,62.78Zm-1-21H216.87V56h14.06c5.09,0,7.7-2.75,7.7-7S236,41.82,230.93,41.82Z"/><rect class="cls-47" x="253.23" y="15.1" width="9.11" height="47.68"/><polygon class="cls-48" points="269.7 62.78 269.7 15.1 278.81 15.1 278.81 55.35 301.64 55.35 301.64 62.78 269.7 62.78"/><rect class="cls-49" x="306.33" y="15.1" width="9.11" height="47.68"/><polygon class="cls-50" points="334.58 62.78 334.58 22.54 320.12 22.54 320.12 15.1 358.22 15.1 358.22 22.54 343.69 22.54 343.69 62.78 334.58 62.78"/><rect class="cls-51" x="362.91" y="15.1" width="9.11" height="47.68"/><polygon class="cls-52" points="379.38 62.78 379.38 15.1 414.13 15.1 414.13 22.54 388.48 22.54 388.48 34.99 411.99 34.99 411.99 41.95 388.48 41.95 388.48 55.35 414.13 55.35 414.13 62.78 379.38 62.78"/><path class="cls-53" d="M417.88,47.45h8.84c.73,6.29,3.61,9.17,11,9.17,7.24,0,10.38-3.08,10.38-7.5,0-3.28-1.8-5.43-9.1-6.5l-6.1-.87c-10-1.4-13.86-4.89-13.86-12.65,0-8.57,6.1-14.67,18.49-14.67S456,20.46,456,29.77h-8.63c-.61-5.63-3.69-8.51-10.05-8.51s-9.17,2.95-9.17,7.3c0,3.28,1.54,5,7.9,5.83l6.09.87c9.71,1.4,15.07,5.09,15.07,13.32,0,8.91-6.43,14.87-19.68,14.87S417.88,57.62,417.88,47.45Z"/><rect class="cls-1" y="21.58" width="468.16" height="57.7"/><text class="cls-54" transform="translate(7.23 74.34)">POSSIBILITIES</text><path class="cls-55" d="M31.73,57.06H20V74.34h-9.1V26.66H31.73c10.58,0,17.15,5.43,17.15,15.2S42.31,57.06,31.73,57.06ZM30.46,33.49H20V50.23H30.46c6,0,9.31-2.61,9.31-8.37S36.49,33.49,30.46,33.49Z"/><path class="cls-55" d="M52.49,50.5C52.49,36,61,26,76.13,26s23.7,10,23.7,24.51S91.33,75,76.13,75,52.49,65,52.49,50.5Zm38.23,0c0-11-5-17.07-14.59-17.07S61.59,39.52,61.59,50.5s5,17.08,14.54,17.08S90.72,61.48,90.72,50.5Z"/><path class="cls-55" d="M103.44,59h8.84c.74,6.29,3.62,9.17,11,9.17,7.23,0,10.38-3.08,10.38-7.5,0-3.28-1.81-5.43-9.11-6.5l-6.09-.87c-10-1.4-13.86-4.89-13.86-12.65,0-8.57,6.09-14.67,18.48-14.67s18.48,6,18.48,15.34H133c-.6-5.63-3.68-8.51-10-8.51s-9.17,3-9.17,7.3c0,3.28,1.53,5,7.9,5.83l6.09.87c9.71,1.4,15.07,5.09,15.07,13.32,0,8.91-6.43,14.87-19.69,14.87S103.44,69.18,103.44,59Z"/><path class="cls-55" d="M146.43,59h8.84c.74,6.29,3.62,9.17,11,9.17,7.23,0,10.38-3.08,10.38-7.5,0-3.28-1.81-5.43-9.11-6.5l-6.09-.87c-10-1.4-13.86-4.89-13.86-12.65,0-8.57,6.09-14.67,18.48-14.67s18.48,6,18.48,15.34H176c-.6-5.63-3.68-8.51-10-8.51s-9.18,3-9.18,7.3c0,3.28,1.54,5,7.9,5.83l6.1.87c9.71,1.4,15.06,5.09,15.06,13.32,0,8.91-6.42,14.87-19.68,14.87S146.43,69.18,146.43,59Z"/><path class="cls-55" d="M191.29,74.34V26.66h9.11V74.34Z"/><path class="cls-55" d="M231.93,74.34H207.76V26.66H230.6c10.18,0,15.8,5.09,15.8,12.72,0,5.23-2.61,9.18-8,10.45,6.23,1.21,9.31,5.63,9.31,11.32C247.74,68.78,242.11,74.34,231.93,74.34Zm-2.34-40.85H216.87V46.68h12.72c5.09,0,7.7-2.27,7.7-6.56S234.68,33.49,229.59,33.49Zm1.34,19.89H216.87V67.51h14.06c5.09,0,7.7-2.75,7.7-7S236,53.38,230.93,53.38Z"/><path class="cls-55" d="M253.23,74.34V26.66h9.1V74.34Z"/><path class="cls-55" d="M269.7,74.34V26.66h9.1V66.91h22.84v7.43Z"/><path class="cls-55" d="M306.32,74.34V26.66h9.11V74.34Z"/><path class="cls-55" d="M334.58,74.34V34.1H320.12V26.66h38.1V34.1H343.69V74.34Z"/><path class="cls-55" d="M362.9,74.34V26.66H372V74.34Z"/><path class="cls-55" d="M379.37,74.34V26.66h34.76V34.1H388.48V46.55H412v7h-23.5v13.4h25.65v7.43Z"/><path class="cls-55" d="M417.88,59h8.83c.74,6.29,3.62,9.17,11.05,9.17,7.23,0,10.38-3.08,10.38-7.5,0-3.28-1.81-5.43-9.11-6.5l-6.09-.87c-10-1.4-13.86-4.89-13.86-12.65,0-8.57,6.09-14.67,18.48-14.67S456,32,456,41.33h-8.63c-.61-5.63-3.69-8.51-10.05-8.51s-9.17,3-9.17,7.3c0,3.28,1.54,5,7.9,5.83l6.09.87c9.71,1.4,15.07,5.09,15.07,13.32,0,8.91-6.43,14.87-19.69,14.87S417.88,69.18,417.88,59Z"/></svg>