<svg id="Layer_1" data-name="Layer 1" xmlns="http://www.w3.org/2000/svg" viewBox="0 0 322.34 64.97"><defs><style>.cls-1{fill:#fefefe;}</style></defs><path class="cls-1" d="M35.73,32.24C35.73,21.65,29.46,14,17.83,14S0,21.59,0,32.66C0,44,6.54,51.33,18.24,51.33c9.68,0,15.18-4.67,16.72-12H26.67c-1.05,3.69-4,5.92-8.43,5.92-5.5,0-9-3.35-9.26-10.66H35.59C35.66,33.7,35.73,33,35.73,32.24ZM9,28.69c.77-5.71,3.9-8.56,8.85-8.56S26,23,26.74,28.69Z"/><polygon class="cls-1" points="61.4 50.63 53.33 38.86 45.25 50.63 35.29 50.63 48.1 31.83 35.98 14.69 45.94 14.69 53.33 25.49 60.71 14.69 70.67 14.69 58.48 31.83 71.36 50.63 61.4 50.63"/><path class="cls-1" d="M95.15,14c-6.06,0-9.53,2.64-11.49,6.82V14.69H75.1V64.28h9V45.2c2,3.9,5.64,6.13,11.07,6.13,9.69,0,15.82-6.9,15.82-18.67S104.84,14,95.15,14ZM93,44.5c-5.3,0-8.92-3.62-8.92-11.84S87.7,20.82,93,20.82s9,3.63,9,11.84S98.36,44.5,93,44.5Z"/><path class="cls-1" d="M148,41.43V26.05c0-7.32-4.59-12-15.66-12s-15.68,4.73-15.68,12.05h8.92c.35-3.84,2.65-5.65,6.83-5.65,4.46,0,6.61,2.09,6.61,5.65,0,1.87-1,2.85-4.66,3.19l-7.32.63c-9,.7-12.32,5.09-12.32,10.59,0,6.61,4.53,10.87,13,10.87,6.13,0,9.75-2.16,11.77-6.27,0,2.78.49,4.25,1.53,5.57h8.15C148.4,49.45,148,46.31,148,41.43Zm-9-5.71c0,5.23-3.13,9.48-8.7,9.48-4.6,0-6.62-2.16-6.62-5.37,0-2.57,1.81-4.46,6.34-4.87l4.25-.35c2.44-.21,4.11-.63,4.73-1.39Z"/><path class="cls-1" d="M177.42,50.63v-22c0-4.87-1.74-7.31-6.12-7.31-4.74,0-7.81,3.41-7.81,9.26V50.63h-9V14.69h8.56v5.85c2-3.82,5.16-6.54,11-6.54,8.21,0,12.32,4.18,12.32,12.88V50.63Z"/><path class="cls-1" d="M218.43,1V20.13c-2-3.91-5.65-6.13-11.08-6.13-9.68,0-15.81,6.89-15.81,18.66s6.13,18.67,15.81,18.67c6,0,9.54-2.66,11.49-6.83v6.13h8.57V1Zm-9,43.46c-5.3,0-8.91-3.62-8.91-11.84s3.61-11.84,8.91-11.84,9,3.63,9,11.84S214.8,44.5,209.44,44.5Z"/><path class="cls-1" d="M233.23,4.67C233.23,2,235.11,0,238.45,0s5.15,2,5.15,4.67-1.8,4.66-5.15,4.66S233.23,7.31,233.23,4.67Z"/><rect class="cls-1" x="233.93" y="14.69" width="8.98" height="35.94"/><path class="cls-1" d="M272.35,50.63v-22c0-4.87-1.73-7.31-6.13-7.31-4.73,0-7.79,3.41-7.79,9.26V50.63h-9V14.69H258v5.85C260,16.72,263.17,14,269,14c8.21,0,12.32,4.18,12.32,12.88V50.63Z"/><path class="cls-1" d="M313.77,14.69v6.13c-1.95-4.18-5.5-6.82-11.49-6.82-9.68,0-15.81,7-15.81,17.62s6.13,17.62,15.81,17.62c5.43,0,9.05-2.24,11.07-6.13v7.1c0,6-3.06,8.84-8.36,8.84-4.87,0-7.59-2.43-8.14-7h-8.43c0,7.73,5.36,12.88,16.16,12.88,11.77,0,17.76-6.13,17.76-17.27v-33Zm-9.4,28.14c-5.3,0-8.92-3.76-8.92-11.21s3.62-11.22,8.92-11.22,9,3.77,9,11.22S309.73,42.83,304.37,42.83Z"/></svg>