<svg id="Layer_1" data-name="Layer 1" xmlns="http://www.w3.org/2000/svg" xmlns:xlink="http://www.w3.org/1999/xlink" viewBox="0 0 932.87 100.59"><defs><style>.cls-1{fill:#071021;}.cls-2{fill:url(#linear-gradient);}.cls-3{fill:url(#linear-gradient-2);}.cls-4{fill:url(#linear-gradient-3);}.cls-5{fill:url(#linear-gradient-4);}.cls-6{fill:url(#linear-gradient-5);}.cls-7{fill:url(#linear-gradient-6);}.cls-8{fill:url(#linear-gradient-7);}.cls-9{fill:url(#linear-gradient-8);}.cls-10{fill:url(#linear-gradient-9);}.cls-11{fill:url(#linear-gradient-10);}.cls-12{fill:url(#linear-gradient-11);}.cls-13{fill:url(#linear-gradient-12);}.cls-14{fill:url(#linear-gradient-13);}.cls-15{fill:url(#linear-gradient-14);}.cls-16{fill:url(#linear-gradient-15);}.cls-17{fill:url(#linear-gradient-16);}.cls-18{fill:url(#linear-gradient-17);}.cls-19{fill:url(#linear-gradient-18);}.cls-20{fill:url(#linear-gradient-19);}.cls-21{fill:url(#linear-gradient-20);}.cls-22{fill:url(#linear-gradient-21);}.cls-23{fill:url(#linear-gradient-22);}.cls-24{fill:url(#linear-gradient-23);}.cls-25{fill:url(#linear-gradient-24);}.cls-26{fill:url(#linear-gradient-25);}.cls-27{fill:url(#linear-gradient-26);}.cls-28{fill:url(#linear-gradient-27);}.cls-29{fill:url(#linear-gradient-28);}.cls-30{fill:url(#linear-gradient-29);}.cls-31{fill:url(#linear-gradient-30);}.cls-32{fill:url(#linear-gradient-31);}.cls-33{fill:url(#linear-gradient-32);}.cls-34{fill:url(#linear-gradient-33);}.cls-35{fill:url(#linear-gradient-34);}.cls-36{fill:url(#linear-gradient-35);}.cls-37{fill:url(#linear-gradient-36);}.cls-38{fill:url(#linear-gradient-37);}.cls-39{fill:url(#linear-gradient-38);}.cls-40{fill:url(#linear-gradient-39);}.cls-41{fill:url(#linear-gradient-40);}.cls-42{fill:url(#linear-gradient-41);}.cls-43{fill:url(#linear-gradient-42);}.cls-44{fill:url(#linear-gradient-43);}.cls-45{fill:url(#linear-gradient-44);}.cls-46{fill:url(#linear-gradient-45);}.cls-47{fill:url(#linear-gradient-46);}.cls-48{fill:url(#linear-gradient-47);}.cls-49{fill:url(#linear-gradient-48);}.cls-50{fill:url(#linear-gradient-49);}.cls-51{fill:url(#linear-gradient-50);}.cls-52{fill:url(#linear-gradient-51);}.cls-53{fill:url(#linear-gradient-52);}.cls-54{font-size:66.96px;fill:none;stroke:#fefefe;stroke-miterlimit:10;stroke-width:0.25px;font-family:CreatoDisplay-Bold, Creato Display;font-weight:700;}.cls-55{fill:#fefefe;}</style><linearGradient id="linear-gradient" x1="899.69" y1="17301.39" x2="167.66" y2="17459.34" gradientTransform="translate(0 -17321.52)" gradientUnits="userSpaceOnUse"><stop offset="0" stop-color="#bdfffd"/><stop offset="0.2" stop-color="#64c8ff"/><stop offset="0.22" stop-color="#62c0fd"/><stop offset="0.32" stop-color="#5796f1"/><stop offset="0.42" stop-color="#4f78e9"/><stop offset="0.51" stop-color="#4b66e4"/><stop offset="0.57" stop-color="#495fe2"/><stop offset="0.62" stop-color="#3f54c6"/><stop offset="0.75" stop-color="#2c3d8e"/><stop offset="0.86" stop-color="#1e2d65"/><stop offset="0.95" stop-color="#15234b"/><stop offset="1" stop-color="#121f42"/></linearGradient><linearGradient id="linear-gradient-2" x1="902.38" y1="17313.9" x2="170.36" y2="17471.85" gradientTransform="matrix(1, 0, 0, -1, 0, 17462.3)" xlink:href="#linear-gradient"/><linearGradient id="linear-gradient-3" x1="904.49" y1="17323.64" x2="172.46" y2="17481.59" gradientTransform="matrix(1, 0, 0, -1, 0, 17462.3)" xlink:href="#linear-gradient"/><linearGradient id="linear-gradient-4" x1="906.4" y1="17332.5" x2="174.38" y2="17490.45" gradientTransform="matrix(1, 0, 0, -1, 0, 17462.3)" xlink:href="#linear-gradient"/><linearGradient id="linear-gradient-5" x1="907.71" y1="17338.58" x2="175.69" y2="17496.52" gradientTransform="matrix(1, 0, 0, -1, 0, 17462.3)" xlink:href="#linear-gradient"/><linearGradient id="linear-gradient-6" x1="908.84" y1="17343.8" x2="176.81" y2="17501.75" gradientTransform="matrix(1, 0, 0, -1, 0, 17462.3)" xlink:href="#linear-gradient"/><linearGradient id="linear-gradient-7" x1="910.46" y1="17351.35" x2="178.44" y2="17509.29" gradientTransform="matrix(1, 0, 0, -1, 0, 17462.3)" xlink:href="#linear-gradient"/><linearGradient id="linear-gradient-8" x1="911.7" y1="15731.87" x2="179.68" y2="15889.81" gradientTransform="translate(0 -15696.28)" xlink:href="#linear-gradient"/><linearGradient id="linear-gradient-9" x1="912.83" y1="17362.3" x2="180.8" y2="17520.24" gradientTransform="matrix(1, 0, 0, -1, 0, 17462.3)" xlink:href="#linear-gradient"/><linearGradient id="linear-gradient-10" x1="913.76" y1="15741.4" x2="181.74" y2="15899.34" gradientTransform="translate(0 -15696.28)" xlink:href="#linear-gradient"/><linearGradient id="linear-gradient-11" x1="915.34" y1="17373.96" x2="183.32" y2="17531.9" gradientTransform="matrix(1, 0, 0, -1, 0, 17462.3)" xlink:href="#linear-gradient"/><linearGradient id="linear-gradient-12" x1="916.65" y1="17380" x2="184.62" y2="17537.94" gradientTransform="matrix(1, 0, 0, -1, 0, 17462.3)" xlink:href="#linear-gradient"/><linearGradient id="linear-gradient-13" x1="918.47" y1="17388.47" x2="186.45" y2="17546.41" gradientTransform="matrix(1, 0, 0, -1, 0, 17462.3)" xlink:href="#linear-gradient"/><linearGradient id="linear-gradient-14" x1="976.65" y1="17242.61" x2="287.9" y2="17461.86" gradientTransform="translate(0 -17339)" xlink:href="#linear-gradient"/><linearGradient id="linear-gradient-15" x1="982.24" y1="17260.15" x2="293.52" y2="17479.38" gradientTransform="matrix(1, 0, 0, -1, 0, 17462.3)" xlink:href="#linear-gradient"/><linearGradient id="linear-gradient-16" x1="986.59" y1="17273.82" x2="297.84" y2="17493.07" gradientTransform="matrix(1, 0, 0, -1, 0, 17462.3)" xlink:href="#linear-gradient"/><linearGradient id="linear-gradient-17" x1="990.54" y1="17286.25" x2="301.79" y2="17505.49" gradientTransform="matrix(1, 0, 0, -1, 0, 17462.3)" xlink:href="#linear-gradient"/><linearGradient id="linear-gradient-18" x1="993.25" y1="17294.75" x2="304.5" y2="17513.99" gradientTransform="matrix(1, 0, 0, -1, 0, 17462.3)" xlink:href="#linear-gradient"/><linearGradient id="linear-gradient-19" x1="995.63" y1="17302.21" x2="306.88" y2="17521.46" gradientTransform="matrix(1, 0, 0, -1, 0, 17462.3)" xlink:href="#linear-gradient"/><linearGradient id="linear-gradient-20" x1="998.95" y1="17312.65" x2="310.2" y2="17531.89" gradientTransform="matrix(1, 0, 0, -1, 0, 17462.3)" xlink:href="#linear-gradient"/><linearGradient id="linear-gradient-21" x1="1001.51" y1="15691.41" x2="312.76" y2="15910.66" gradientTransform="translate(0 -15709.71)" xlink:href="#linear-gradient"/><linearGradient id="linear-gradient-22" x1="1003.83" y1="17328" x2="315.08" y2="17547.24" gradientTransform="matrix(1, 0, 0, -1, 0, 17462.3)" xlink:href="#linear-gradient"/><linearGradient id="linear-gradient-23" x1="1005.77" y1="15704.77" x2="317.02" y2="15924.02" gradientTransform="translate(0 -15709.71)" xlink:href="#linear-gradient"/><linearGradient id="linear-gradient-24" x1="1009.04" y1="17344.35" x2="320.29" y2="17563.59" gradientTransform="matrix(1, 0, 0, -1, 0, 17462.3)" xlink:href="#linear-gradient"/><linearGradient id="linear-gradient-25" x1="1011.73" y1="17352.82" x2="322.98" y2="17572.06" gradientTransform="matrix(1, 0, 0, -1, 0, 17462.3)" xlink:href="#linear-gradient"/><linearGradient id="linear-gradient-26" x1="1015.52" y1="17364.7" x2="326.77" y2="17583.95" gradientTransform="matrix(1, 0, 0, -1, 0, 17462.3)" xlink:href="#linear-gradient"/><linearGradient id="linear-gradient-27" x1="268.17" y1="31.79" x2="991.46" y2="26.36" gradientUnits="userSpaceOnUse"><stop offset="0" stop-color="#495fe2"/><stop offset="0.07" stop-color="#4e5fde"/><stop offset="0.15" stop-color="#5e5dd3"/><stop offset="0.24" stop-color="#775cc0"/><stop offset="0.34" stop-color="#9a59a6"/><stop offset="0.44" stop-color="#c75685"/><stop offset="0.51" stop-color="#ea536c"/><stop offset="0.78" stop-color="#ff8a61"/><stop offset="0.83" stop-color="#fd8560"/><stop offset="0.88" stop-color="#f8765c"/><stop offset="0.93" stop-color="#f05d55"/><stop offset="0.99" stop-color="#e43b4c"/><stop offset="1" stop-color="#e2344a"/></linearGradient><linearGradient id="linear-gradient-28" x1="268.17" y1="32.24" x2="991.47" y2="26.82" xlink:href="#linear-gradient-27"/><linearGradient id="linear-gradient-29" x1="268.17" y1="32.59" x2="991.47" y2="27.17" xlink:href="#linear-gradient-27"/><linearGradient id="linear-gradient-30" x1="268.17" y1="32.92" x2="991.47" y2="27.49" xlink:href="#linear-gradient-27"/><linearGradient id="linear-gradient-31" x1="268.18" y1="33.14" x2="991.47" y2="27.71" xlink:href="#linear-gradient-27"/><linearGradient id="linear-gradient-32" x1="268.18" y1="33.32" x2="991.48" y2="27.9" xlink:href="#linear-gradient-27"/><linearGradient id="linear-gradient-33" x1="268.18" y1="33.6" x2="991.48" y2="28.18" xlink:href="#linear-gradient-27"/><linearGradient id="linear-gradient-34" x1="268.18" y1="33.81" x2="991.48" y2="28.39" xlink:href="#linear-gradient-27"/><linearGradient id="linear-gradient-35" x1="268.18" y1="34" x2="991.48" y2="28.58" xlink:href="#linear-gradient-27"/><linearGradient id="linear-gradient-36" x1="268.18" y1="34.16" x2="991.48" y2="28.74" xlink:href="#linear-gradient-27"/><linearGradient id="linear-gradient-37" x1="268.19" y1="34.42" x2="991.48" y2="29" xlink:href="#linear-gradient-27"/><linearGradient id="linear-gradient-38" x1="268.19" y1="34.64" x2="991.49" y2="29.22" xlink:href="#linear-gradient-27"/><linearGradient id="linear-gradient-39" x1="268.19" y1="34.95" x2="991.49" y2="29.53" xlink:href="#linear-gradient-27"/><linearGradient id="linear-gradient-40" x1="406.42" y1="39.55" x2="983.29" y2="34.8" xlink:href="#linear-gradient-27"/><linearGradient id="linear-gradient-41" x1="406.42" y1="40.05" x2="983.3" y2="35.3" xlink:href="#linear-gradient-27"/><linearGradient id="linear-gradient-42" x1="406.43" y1="40.43" x2="983.3" y2="35.69" xlink:href="#linear-gradient-27"/><linearGradient id="linear-gradient-43" x1="406.43" y1="40.79" x2="983.3" y2="36.04" xlink:href="#linear-gradient-27"/><linearGradient id="linear-gradient-44" x1="406.43" y1="41.03" x2="983.31" y2="36.28" xlink:href="#linear-gradient-27"/><linearGradient id="linear-gradient-45" x1="406.43" y1="41.23" x2="983.31" y2="36.48" xlink:href="#linear-gradient-27"/><linearGradient id="linear-gradient-46" x1="406.43" y1="41.54" x2="983.31" y2="36.79" xlink:href="#linear-gradient-27"/><linearGradient id="linear-gradient-47" x1="406.44" y1="41.77" x2="983.31" y2="37.02" xlink:href="#linear-gradient-27"/><linearGradient id="linear-gradient-48" x1="406.44" y1="41.98" x2="983.31" y2="37.23" xlink:href="#linear-gradient-27"/><linearGradient id="linear-gradient-49" x1="406.44" y1="42.15" x2="983.32" y2="37.4" xlink:href="#linear-gradient-27"/><linearGradient id="linear-gradient-50" x1="406.44" y1="42.44" x2="983.32" y2="37.7" xlink:href="#linear-gradient-27"/><linearGradient id="linear-gradient-51" x1="406.44" y1="42.68" x2="983.32" y2="37.94" xlink:href="#linear-gradient-27"/><linearGradient id="linear-gradient-52" x1="406.45" y1="43.02" x2="983.32" y2="38.27" xlink:href="#linear-gradient-27"/></defs><rect class="cls-1" x="464.71" y="39.17" width="468.16" height="61.42"/><path class="cls-2" d="M495.18,53.38H484.73V70.12h10.45c6,0,9.3-2.61,9.3-8.37S501.2,53.38,495.18,53.38ZM496.45,77H484.73V94.23h-9.11V46.55h20.83c10.58,0,17.14,5.43,17.14,15.2S507,77,496.45,77Z"/><path class="cls-3" d="M540.84,53.31c-9.58,0-14.53,6.1-14.53,17.08s5,17.07,14.53,17.07,14.6-6.09,14.6-17.07S550.48,53.31,540.84,53.31Zm0-7.43c15.2,0,23.7,10,23.7,24.51S556,94.9,540.84,94.9s-23.64-10-23.64-24.51S525.71,45.88,540.84,45.88Z"/><path class="cls-4" d="M568.16,61.88H577c.73-6.29,3.61-9.17,11-9.17,7.24,0,10.38,3.08,10.38,7.5,0,3.28-1.81,5.43-9.11,6.5l-6.09.87c-10,1.4-13.86,4.89-13.86,12.65,0,8.57,6.1,14.67,18.48,14.67s18.48-6,18.48-15.34h-8.63c-.61,5.63-3.69,8.51-10.05,8.51s-9.17-2.95-9.17-7.3c0-3.28,1.54-5,7.9-5.83l6.09-.87c9.71-1.4,15.07-5.09,15.07-13.32,0-8.91-6.43-14.87-19.69-14.87S568.16,51.71,568.16,61.88Z"/><path class="cls-5" d="M611.15,61.88H620c.74-6.29,3.62-9.17,11-9.17,7.23,0,10.38,3.08,10.38,7.5,0,3.28-1.81,5.43-9.11,6.5l-6.09.87c-10,1.4-13.86,4.89-13.86,12.65,0,8.57,6.09,14.67,18.48,14.67s18.48-6,18.48-15.34h-8.63c-.61,5.63-3.69,8.51-10,8.51s-9.17-2.95-9.17-7.3c0-3.28,1.54-5,7.9-5.83l6.09-.87c9.71-1.4,15.07-5.09,15.07-13.32,0-8.91-6.43-14.87-19.69-14.87S611.15,51.71,611.15,61.88Z"/><rect class="cls-6" x="656.01" y="46.55" width="9.11" height="47.68"/><path class="cls-7" d="M702,80.77c0-4.29-2.62-6.56-7.7-6.56H681.58V87.4h12.73C699.39,87.4,702,85.05,702,80.77Zm10.44-21c0,5.69-3.08,10.11-9.3,11.32,5.35,1.27,8,5.22,8,10.45,0,7.63-5.62,12.72-15.8,12.72H672.48V46.55h24.17C706.83,46.55,712.45,52.11,712.45,59.74Zm-9.1.67c0-4.28-2.61-7-7.7-7H681.58V67.51h14.07C700.74,67.51,703.35,64.7,703.35,60.41Z"/><rect class="cls-8" x="717.94" y="46.55" width="9.11" height="47.68"/><polygon class="cls-9" points="734.41 94.23 734.41 46.55 743.52 46.55 743.52 86.8 766.35 86.8 766.35 94.23 734.41 94.23"/><rect class="cls-10" x="771.04" y="46.55" width="9.11" height="47.68"/><polygon class="cls-11" points="799.3 94.23 799.3 53.99 784.83 53.99 784.83 46.55 822.93 46.55 822.93 53.99 808.4 53.99 808.4 94.23 799.3 94.23"/><rect class="cls-12" x="827.62" y="46.55" width="9.11" height="47.68"/><polygon class="cls-13" points="844.09 46.55 844.09 94.23 878.84 94.23 878.84 86.79 853.19 86.79 853.19 74.34 876.7 74.34 876.7 67.38 853.19 67.38 853.19 53.98 878.84 53.98 878.84 46.55 844.09 46.55"/><path class="cls-14" d="M882.59,61.88h8.84c.73-6.29,3.61-9.17,11.05-9.17,7.23,0,10.38,3.08,10.38,7.5,0,3.28-1.81,5.43-9.11,6.5l-6.09.87c-10,1.4-13.87,4.89-13.87,12.65,0,8.57,6.1,14.67,18.49,14.67s18.48-6,18.48-15.34h-8.64c-.61,5.63-3.68,8.51-10,8.51s-9.17-2.95-9.17-7.3c0-3.28,1.54-5,7.9-5.83l6.09-.87C916.6,72.67,922,69,922,60.75c0-8.91-6.43-14.87-19.68-14.87S882.59,51.71,882.59,61.88Z"/><rect class="cls-1" x="464.71" y="30.51" width="468.16" height="61.03"/><path class="cls-15" d="M495.18,44.64H484.73V61.38h10.45c6,0,9.3-2.61,9.3-8.37S501.2,44.64,495.18,44.64Zm1.27,23.57H484.73V85.49h-9.11V37.81h20.83c10.58,0,17.14,5.42,17.14,15.2S507,68.21,496.45,68.21Z"/><path class="cls-16" d="M540.84,44.57c-9.58,0-14.53,6.09-14.53,17.08s5,17.07,14.53,17.07,14.6-6.09,14.6-17.07S550.48,44.57,540.84,44.57Zm0-7.43c15.2,0,23.7,10,23.7,24.51s-8.5,24.5-23.7,24.5-23.64-10-23.64-24.5S525.71,37.14,540.84,37.14Z"/><path class="cls-17" d="M568.16,53.14H577c.73-6.29,3.61-9.17,11-9.17,7.24,0,10.38,3.08,10.38,7.5,0,3.28-1.81,5.42-9.11,6.49l-6.09.88c-10,1.4-13.86,4.88-13.86,12.65,0,8.57,6.1,14.66,18.48,14.66s18.48-6,18.48-15.33h-8.63c-.61,5.63-3.69,8.5-10.05,8.5s-9.17-2.94-9.17-7.3c0-3.28,1.54-5,7.9-5.82l6.09-.87c9.71-1.41,15.07-5.09,15.07-13.32,0-8.91-6.43-14.87-19.69-14.87S568.16,43,568.16,53.14Z"/><path class="cls-18" d="M611.15,53.14H620c.74-6.29,3.62-9.17,11-9.17,7.23,0,10.38,3.08,10.38,7.5,0,3.28-1.81,5.42-9.11,6.49l-6.09.88c-10,1.4-13.86,4.88-13.86,12.65,0,8.57,6.09,14.66,18.48,14.66s18.48-6,18.48-15.33h-8.63c-.61,5.63-3.69,8.5-10,8.5s-9.17-2.94-9.17-7.3c0-3.28,1.54-5,7.9-5.82l6.09-.87c9.71-1.41,15.07-5.09,15.07-13.32,0-8.91-6.43-14.87-19.69-14.87S611.15,43,611.15,53.14Z"/><rect class="cls-19" x="656.01" y="37.81" width="9.11" height="47.68"/><path class="cls-20" d="M702,72c0-4.28-2.62-6.56-7.7-6.56H681.58v13.2h12.73C699.39,78.66,702,76.31,702,72Zm10.44-21c0,5.69-3.08,10.11-9.3,11.32,5.35,1.27,8,5.22,8,10.44,0,7.64-5.62,12.73-15.8,12.73H672.48V37.81h24.17C706.83,37.81,712.45,43.37,712.45,51Zm-9.1.67c0-4.29-2.61-7-7.7-7H681.58V58.77h14.07C700.74,58.77,703.35,56,703.35,51.67Z"/><rect class="cls-21" x="717.94" y="37.81" width="9.11" height="47.68"/><polygon class="cls-22" points="734.41 85.48 734.41 37.81 743.52 37.81 743.52 78.05 766.35 78.05 766.35 85.48 734.41 85.48"/><rect class="cls-23" x="771.04" y="37.81" width="9.11" height="47.68"/><polygon class="cls-24" points="799.3 85.48 799.3 45.24 784.83 45.24 784.83 37.81 822.93 37.81 822.93 45.24 808.4 45.24 808.4 85.48 799.3 85.48"/><rect class="cls-25" x="827.62" y="37.81" width="9.11" height="47.68"/><polygon class="cls-26" points="844.09 37.81 844.09 85.48 878.84 85.48 878.84 78.05 853.19 78.05 853.19 65.6 876.7 65.6 876.7 58.63 853.19 58.63 853.19 45.24 878.84 45.24 878.84 37.81 844.09 37.81"/><path class="cls-27" d="M882.59,53.14h8.84C892.16,46.85,895,44,902.48,44c7.23,0,10.38,3.08,10.38,7.5,0,3.28-1.81,5.42-9.11,6.49l-6.09.88c-10,1.4-13.87,4.88-13.87,12.65,0,8.57,6.1,14.66,18.49,14.66s18.48-6,18.48-15.33h-8.64c-.61,5.63-3.68,8.5-10,8.5s-9.17-2.94-9.17-7.3c0-3.28,1.54-5,7.9-5.82l6.09-.87C916.6,63.92,922,60.24,922,52c0-8.91-6.43-14.87-19.68-14.87S882.59,43,882.59,53.14Z"/><rect class="cls-1" x="464.71" width="468.16" height="61.42"/><path class="cls-28" d="M495.18,13.19H484.73V29.93h10.45c6,0,9.3-2.61,9.3-8.37S501.2,13.19,495.18,13.19Zm1.27,23.57H484.73V54h-9.11V6.36h20.83c10.58,0,17.14,5.42,17.14,15.2S507,36.76,496.45,36.76Z"/><path class="cls-29" d="M555.44,30.2c0-11-5-17.08-14.6-17.08s-14.53,6.09-14.53,17.08,5,17.07,14.53,17.07S555.44,41.18,555.44,30.2Zm-38.24,0c0-14.53,8.51-24.51,23.64-24.51s23.7,10,23.7,24.51-8.5,24.5-23.7,24.5S517.2,44.73,517.2,30.2Z"/><path class="cls-30" d="M568.16,38.7H577c.73,6.3,3.61,9.17,11,9.17,7.24,0,10.38-3.08,10.38-7.5,0-3.28-1.81-5.42-9.11-6.49L583.22,33c-10-1.41-13.86-4.89-13.86-12.66,0-8.57,6.1-14.66,18.48-14.66s18.48,6,18.48,15.33h-8.63c-.61-5.62-3.69-8.5-10.05-8.5s-9.17,3-9.17,7.3c0,3.28,1.54,4.95,7.9,5.82l6.09.87c9.71,1.41,15.07,5.09,15.07,13.33,0,8.9-6.43,14.86-19.69,14.86S568.16,48.88,568.16,38.7Z"/><path class="cls-31" d="M611.15,38.7H620c.74,6.3,3.62,9.17,11,9.17,7.23,0,10.38-3.08,10.38-7.5,0-3.28-1.81-5.42-9.11-6.49L626.21,33c-10-1.41-13.86-4.89-13.86-12.66,0-8.57,6.09-14.66,18.48-14.66s18.48,6,18.48,15.33h-8.63c-.61-5.62-3.69-8.5-10-8.5s-9.17,3-9.17,7.3c0,3.28,1.54,4.95,7.9,5.82l6.09.87c9.71,1.41,15.07,5.09,15.07,13.33,0,8.9-6.43,14.86-19.69,14.86S611.15,48.88,611.15,38.7Z"/><rect class="cls-32" x="656.01" y="6.36" width="9.11" height="47.68"/><path class="cls-33" d="M694.31,13.19H681.58V26.38h12.73c5.08,0,7.7-2.28,7.7-6.56S699.39,13.19,694.31,13.19ZM696.65,54H672.48V6.36h22.83c10.18,0,15.8,5.09,15.8,12.72,0,5.22-2.61,9.17-8,10.45,6.22,1.2,9.3,5.62,9.3,11.31C712.45,48.48,706.83,54,696.65,54Zm-1-21H681.58V47.2h14.07c5.09,0,7.7-2.74,7.7-7S700.74,33.08,695.65,33.08Z"/><rect class="cls-34" x="717.94" y="6.36" width="9.11" height="47.68"/><polygon class="cls-35" points="734.41 54.03 734.41 6.36 743.52 6.36 743.52 46.6 766.35 46.6 766.35 54.03 734.41 54.03"/><rect class="cls-36" x="771.04" y="6.36" width="9.11" height="47.68"/><polygon class="cls-37" points="799.3 54.03 799.3 13.79 784.83 13.79 784.83 6.36 822.93 6.36 822.93 13.79 808.4 13.79 808.4 54.03 799.3 54.03"/><rect class="cls-38" x="827.62" y="6.36" width="9.11" height="47.68"/><polygon class="cls-39" points="844.09 54.03 844.09 6.36 878.84 6.36 878.84 13.79 853.19 13.79 853.19 26.25 876.7 26.25 876.7 33.21 853.19 33.21 853.19 46.6 878.84 46.6 878.84 54.03 844.09 54.03"/><path class="cls-40" d="M882.59,38.7h8.84c.73,6.3,3.61,9.17,11.05,9.17,7.23,0,10.38-3.08,10.38-7.5,0-3.28-1.81-5.42-9.11-6.49L897.66,33c-10-1.41-13.87-4.89-13.87-12.66,0-8.57,6.1-14.66,18.49-14.66s18.48,6,18.48,15.33h-8.64c-.61-5.62-3.68-8.5-10-8.5s-9.17,3-9.17,7.3c0,3.28,1.54,4.95,7.9,5.82l6.09.87C916.6,27.92,922,31.6,922,39.84c0,8.9-6.43,14.86-19.68,14.86S882.59,48.88,882.59,38.7Z"/><rect class="cls-1" x="464.71" y="9.04" width="468.16" height="61.03"/><path class="cls-41" d="M495.18,21.93H484.73V38.67h10.45c6,0,9.3-2.61,9.3-8.37S501.2,21.93,495.18,21.93Zm1.27,23.57H484.73V62.78h-9.11V15.1h20.83c10.58,0,17.14,5.43,17.14,15.2S507,45.5,496.45,45.5Z"/><path class="cls-42" d="M555.44,38.94c0-11-5-17.07-14.6-17.07S526.31,28,526.31,38.94,531.26,56,540.84,56,555.44,49.92,555.44,38.94Zm-38.24,0c0-14.53,8.51-24.51,23.64-24.51s23.7,10,23.7,24.51-8.5,24.51-23.7,24.51S517.2,53.47,517.2,38.94Z"/><path class="cls-43" d="M568.16,47.45H577c.73,6.29,3.61,9.17,11,9.17,7.24,0,10.38-3.08,10.38-7.5,0-3.28-1.81-5.43-9.11-6.5l-6.09-.87c-10-1.4-13.86-4.89-13.86-12.65,0-8.57,6.1-14.67,18.48-14.67s18.48,6,18.48,15.34h-8.63c-.61-5.63-3.69-8.51-10.05-8.51s-9.17,2.95-9.17,7.3c0,3.28,1.54,5,7.9,5.83l6.09.87c9.71,1.4,15.07,5.09,15.07,13.32,0,8.91-6.43,14.87-19.69,14.87S568.16,57.62,568.16,47.45Z"/><path class="cls-44" d="M611.15,47.45H620c.74,6.29,3.62,9.17,11,9.17,7.23,0,10.38-3.08,10.38-7.5,0-3.28-1.81-5.43-9.11-6.5l-6.09-.87c-10-1.4-13.86-4.89-13.86-12.65,0-8.57,6.09-14.67,18.48-14.67s18.48,6,18.48,15.34h-8.63c-.61-5.63-3.69-8.51-10-8.51s-9.17,2.95-9.17,7.3c0,3.28,1.54,5,7.9,5.83l6.09.87c9.71,1.4,15.07,5.09,15.07,13.32,0,8.91-6.43,14.87-19.69,14.87S611.15,57.62,611.15,47.45Z"/><rect class="cls-45" x="656.01" y="15.1" width="9.11" height="47.68"/><path class="cls-46" d="M694.31,21.93H681.58V35.12h12.73c5.08,0,7.7-2.27,7.7-6.56S699.39,21.93,694.31,21.93Zm2.34,40.85H672.48V15.1h22.83c10.18,0,15.8,5.09,15.8,12.72,0,5.23-2.61,9.18-8,10.45,6.22,1.21,9.3,5.63,9.3,11.32C712.45,57.22,706.83,62.78,696.65,62.78Zm-1-21H681.58V56h14.07c5.09,0,7.7-2.75,7.7-7S700.74,41.82,695.65,41.82Z"/><rect class="cls-47" x="717.94" y="15.1" width="9.11" height="47.68"/><polygon class="cls-48" points="734.41 62.78 734.41 15.1 743.52 15.1 743.52 55.35 766.35 55.35 766.35 62.78 734.41 62.78"/><rect class="cls-49" x="771.04" y="15.1" width="9.11" height="47.68"/><polygon class="cls-50" points="799.3 62.78 799.3 22.54 784.83 22.54 784.83 15.1 822.93 15.1 822.93 22.54 808.4 22.54 808.4 62.78 799.3 62.78"/><rect class="cls-51" x="827.62" y="15.1" width="9.11" height="47.68"/><polygon class="cls-52" points="844.09 62.78 844.09 15.1 878.84 15.1 878.84 22.54 853.19 22.54 853.19 34.99 876.7 34.99 876.7 41.95 853.19 41.95 853.19 55.35 878.84 55.35 878.84 62.78 844.09 62.78"/><path class="cls-53" d="M882.59,47.45h8.84c.73,6.29,3.61,9.17,11.05,9.17,7.23,0,10.38-3.08,10.38-7.5,0-3.28-1.81-5.43-9.11-6.5l-6.09-.87c-10-1.4-13.87-4.89-13.87-12.65,0-8.57,6.1-14.67,18.49-14.67s18.48,6,18.48,15.34h-8.64c-.61-5.63-3.68-8.51-10-8.51s-9.17,2.95-9.17,7.3c0,3.28,1.54,5,7.9,5.83l6.09.87C916.6,36.66,922,40.35,922,48.58c0,8.91-6.43,14.87-19.68,14.87S882.59,57.62,882.59,47.45Z"/><rect class="cls-1" x="464.71" y="21.58" width="468.16" height="57.7"/><text class="cls-54" transform="translate(471.94 74.34)">POSSIBILITIES</text><path class="cls-55" d="M496.45,57.06H484.72V74.34h-9.1V26.66h20.83c10.57,0,17.14,5.43,17.14,15.2S507,57.06,496.45,57.06Zm-1.28-23.57H484.72V50.23h10.45c6,0,9.31-2.61,9.31-8.37S501.2,33.49,495.17,33.49Z"/><path class="cls-55" d="M517.2,50.5C517.2,36,525.7,26,540.84,26s23.7,10,23.7,24.51S556,75,540.84,75,517.2,65,517.2,50.5Zm38.23,0c0-11-4.95-17.07-14.59-17.07S526.3,39.52,526.3,50.5s5,17.08,14.54,17.08S555.43,61.48,555.43,50.5Z"/><path class="cls-55" d="M568.15,59H577c.74,6.29,3.62,9.17,11,9.17,7.23,0,10.38-3.08,10.38-7.5,0-3.28-1.81-5.43-9.11-6.5l-6.09-.87c-10-1.4-13.86-4.89-13.86-12.65,0-8.57,6.09-14.67,18.48-14.67s18.48,6,18.48,15.34h-8.64c-.6-5.63-3.68-8.51-10-8.51s-9.17,3-9.17,7.3c0,3.28,1.54,5,7.9,5.83l6.09.87c9.71,1.4,15.07,5.09,15.07,13.32,0,8.91-6.43,14.87-19.69,14.87S568.15,69.18,568.15,59Z"/><path class="cls-55" d="M611.14,59H620c.74,6.29,3.62,9.17,11,9.17,7.23,0,10.38-3.08,10.38-7.5,0-3.28-1.81-5.43-9.11-6.5l-6.09-.87c-10-1.4-13.86-4.89-13.86-12.65,0-8.57,6.09-14.67,18.48-14.67s18.48,6,18.48,15.34h-8.64c-.6-5.63-3.68-8.51-10-8.51s-9.18,3-9.18,7.3c0,3.28,1.54,5,7.91,5.83l6.09.87c9.71,1.4,15.07,5.09,15.07,13.32,0,8.91-6.43,14.87-19.69,14.87S611.14,69.18,611.14,59Z"/><path class="cls-55" d="M656,74.34V26.66h9.11V74.34Z"/><path class="cls-55" d="M696.65,74.34H672.47V26.66h22.84c10.18,0,15.8,5.09,15.8,12.72,0,5.23-2.61,9.18-8,10.45,6.23,1.21,9.31,5.63,9.31,11.32C712.45,68.78,706.82,74.34,696.65,74.34ZM694.3,33.49H681.58V46.68H694.3c5.09,0,7.7-2.27,7.7-6.56S699.39,33.49,694.3,33.49Zm1.34,19.89H681.58V67.51h14.06c5.09,0,7.7-2.75,7.7-7S700.73,53.38,695.64,53.38Z"/><path class="cls-55" d="M717.94,74.34V26.66H727V74.34Z"/><path class="cls-55" d="M734.41,74.34V26.66h9.1V66.91h22.84v7.43Z"/><path class="cls-55" d="M771,74.34V26.66h9.1V74.34Z"/><path class="cls-55" d="M799.29,74.34V34.1H784.83V26.66h38.1V34.1H808.4V74.34Z"/><path class="cls-55" d="M827.61,74.34V26.66h9.11V74.34Z"/><path class="cls-55" d="M844.09,74.34V26.66h34.75V34.1H853.19V46.55h23.5v7h-23.5v13.4h25.65v7.43Z"/><path class="cls-55" d="M882.59,59h8.84c.73,6.29,3.61,9.17,11,9.17,7.24,0,10.38-3.08,10.38-7.5,0-3.28-1.81-5.43-9.11-6.5l-6.09-.87c-10-1.4-13.86-4.89-13.86-12.65,0-8.57,6.1-14.67,18.48-14.67s18.48,6,18.48,15.34h-8.63c-.61-5.63-3.69-8.51-10-8.51s-9.17,3-9.17,7.3c0,3.28,1.54,5,7.9,5.83l6.09.87C916.6,48.22,922,51.91,922,60.14,922,69.05,915.53,75,902.27,75S882.59,69.18,882.59,59Z"/><path class="cls-55" d="M0,56C0,45,6.27,37.38,17.83,37.38S35.73,45,35.73,55.62c0,.77-.07,1.46-.14,2.3H9c.28,7.31,3.76,10.66,9.26,10.66,4.46,0,7.38-2.23,8.43-5.92H35c-1.54,7.38-7,12-16.72,12C6.54,74.71,0,67.39,0,56Zm9-4H26.74c-.77-5.71-4-8.56-8.91-8.56S9.75,46.36,9,52.07Z"/><path class="cls-55" d="M61.4,74,53.33,62.24,45.25,74h-10L48.1,55.21,36,38.07h10l7.39,10.8,7.38-10.8h10L58.48,55.21,71.36,74Z"/><path class="cls-55" d="M84.08,68.58V87.66h-9V38.07h8.56V44.2c2-4.18,5.43-6.82,11.49-6.82C104.84,37.38,111,44.27,111,56s-6.13,18.67-15.82,18.67C89.72,74.71,86.1,72.48,84.08,68.58ZM102,56c0-8.21-3.62-11.84-9-11.84S84.08,47.83,84.08,56,87.7,67.88,93,67.88,102,64.26,102,56Z"/><path class="cls-55" d="M114.7,63.84c0-5.5,3.28-9.89,12.32-10.58l7.32-.63c3.62-.35,4.66-1.33,4.66-3.2,0-3.56-2.15-5.65-6.61-5.65-4.18,0-6.48,1.81-6.83,5.65h-8.92c0-7.32,4.6-12,15.68-12S148,42.11,148,49.43V64.81c0,4.88.42,8,1.12,9.2H141c-1-1.32-1.53-2.79-1.53-5.57-2,4.11-5.64,6.27-11.77,6.27C119.23,74.71,114.7,70.45,114.7,63.84ZM139,59.1V56.6c-.62.76-2.29,1.18-4.73,1.39l-4.25.35c-4.53.41-6.34,2.3-6.34,4.87,0,3.21,2,5.37,6.62,5.37C135.87,68.58,139,64.33,139,59.1Z"/><path class="cls-55" d="M177.42,74V52c0-4.87-1.74-7.31-6.12-7.31-4.74,0-7.81,3.41-7.81,9.26V74h-9V38.07h8.56v5.85c2-3.83,5.16-6.54,11-6.54,8.21,0,12.32,4.18,12.32,12.88V74Z"/><path class="cls-55" d="M191.54,56c0-11.77,6.13-18.66,15.81-18.66,5.43,0,9.05,2.22,11.08,6.13V24.42h9V74h-8.57V67.88c-2,4.18-5.5,6.83-11.49,6.83C197.67,74.71,191.54,67.81,191.54,56Zm26.89,0c0-8.21-3.63-11.84-9-11.84s-8.91,3.63-8.91,11.84,3.61,11.84,8.91,11.84S218.43,64.26,218.43,56Z"/><path class="cls-55" d="M233.23,28.05c0-2.65,1.88-4.67,5.22-4.67s5.15,2,5.15,4.67-1.8,4.66-5.15,4.66S233.23,30.69,233.23,28.05Zm.7,46V38.07h9V74Z"/><path class="cls-55" d="M272.35,74V52c0-4.87-1.73-7.31-6.13-7.31-4.73,0-7.79,3.41-7.79,9.26V74h-9V38.07H258v5.85c1.95-3.83,5.16-6.54,11-6.54,8.21,0,12.32,4.18,12.32,12.88V74Z"/><path class="cls-55" d="M286.47,55c0-10.59,6.13-17.62,15.81-17.62,6,0,9.54,2.64,11.49,6.82V38.07h8.57v33c0,11.14-6,17.27-17.76,17.27-10.8,0-16.16-5.15-16.16-12.88h8.43c.55,4.53,3.27,7,8.14,7,5.3,0,8.36-2.85,8.36-8.84v-7.1c-2,3.89-5.64,6.13-11.07,6.13C292.6,72.62,286.47,65.58,286.47,55Zm26.88,0c0-7.45-3.62-11.22-9-11.22s-8.92,3.77-8.92,11.22,3.62,11.21,8.92,11.21S313.35,62.45,313.35,55Z"/><path class="cls-55" d="M349.33,63.91V44.48h-5.64V38.07h5.64V27.21h9V38.07h7.8v6.41h-7.8V64.26c0,2.79,1.18,3.76,4,3.76l3.76-.07V74c-1.47.14-4.32.35-5.92.35C352,74.36,349.33,71.85,349.33,63.91Z"/><path class="cls-55" d="M394.09,74V52c0-4.87-1.74-7.31-6.13-7.31-4.73,0-7.8,3.41-7.8,9.26V74h-9V24.42h9V43.23c1.95-3.49,5.15-5.85,10.59-5.85,8.21,0,12.32,4.18,12.32,12.88V74Z"/><path class="cls-55" d="M408.2,56c0-11.07,6.27-18.66,17.83-18.66s17.9,7.65,17.9,18.24c0,.77-.07,1.46-.14,2.3h-26.6c.28,7.31,3.75,10.66,9.25,10.66,4.46,0,7.38-2.23,8.44-5.92h8.28c-1.53,7.38-7,12-16.72,12C414.74,74.71,408.2,67.39,408.2,56Zm9-4H435c-.78-5.71-4-8.56-8.92-8.56S418,46.36,417.19,52.07Z"/></svg>