<svg id="Layer_1" data-name="Layer 1" xmlns="http://www.w3.org/2000/svg" viewBox="0 0 100.24 50.29"><defs><style>.cls-1{fill:#fefefe;}</style></defs><path class="cls-1" d="M5.64,39.49V20.06H0V13.65H5.64V2.78h9V13.65h7.8v6.41h-7.8V39.84c0,2.79,1.19,3.76,4,3.76l3.76-.07v6.06c-1.46.14-4.32.35-5.92.35C8.35,49.94,5.64,47.42,5.64,39.49Z"/><path class="cls-1" d="M50.4,49.59v-22c0-4.87-1.74-7.31-6.13-7.31-4.73,0-7.8,3.41-7.8,9.26V49.59h-9V0h9V18.81c2-3.49,5.15-5.85,10.59-5.85,8.21,0,12.32,4.18,12.32,12.88V49.59Z"/><path class="cls-1" d="M100.24,31.2C100.24,20.61,94,13,82.34,13S64.51,20.55,64.51,31.62c0,11.35,6.54,18.67,18.24,18.67,9.69,0,15.19-4.67,16.72-12H91.19c-1.06,3.69-4,5.92-8.44,5.92-5.5,0-9-3.35-9.25-10.66h26.6C100.17,32.66,100.24,32,100.24,31.2ZM73.5,27.65c.76-5.71,3.89-8.56,8.84-8.56s8.14,2.85,8.92,8.56Z"/></svg>