<svg id="Layer_1" data-name="Layer 1" xmlns="http://www.w3.org/2000/svg" xmlns:xlink="http://www.w3.org/1999/xlink" viewBox="0 0 393.19 102.76"><defs><style>.cls-1{fill:#4374ff;}.cls-2{clip-path:url(#clip-path);}.cls-3{clip-path:url(#clip-path-2);}.cls-4{fill:#fff;}</style><clipPath id="clip-path"><path class="cls-1" d="M17.21,90.46H36.4a31.63,31.63,0,0,1-3.85,3.1,37.35,37.35,0,0,1-6.93,3.68,18.44,18.44,0,0,1-9.27-4.36c-.2-.17-.4-.36-.59-.55s-.37-.38-.55-.58c-6.05-6.81-4.86-19.31,2-33.06Zm7.07-6.64V46.93q-2.41,3.42-4.4,6.83v34H38.94a30.28,30.28,0,0,0,2.82-4Z"/></clipPath><clipPath id="clip-path-2"><path class="cls-1" d="M96.18,12.29H77A31.75,31.75,0,0,1,80.84,9.2a37.35,37.35,0,0,1,6.93-3.68A18.44,18.44,0,0,1,97,9.88c.2.17.39.35.59.54s.37.39.54.59c6.06,6.81,4.87,19.31-2,33.05Zm-7.07,6.65V55.83c1.61-2.28,3.08-4.57,4.4-6.83V15H74.45a30.28,30.28,0,0,0-2.82,4Z"/></clipPath></defs><path class="cls-1" d="M14.92,91.41a.12.12,0,0,0,.05,0c-.17-.19-.32-.4-.48-.61.15.18.27.38.43.55Z"/><path class="cls-1" d="M14.49,90.85l-.23-.31s0,0,0,0Z"/><path class="cls-1" d="M47.88,19H24.28V25.4a62.52,62.52,0,0,1-7.15,28.71c-7.52,14.52-9,28.28-2.87,36.43a14.19,14.19,0,0,1-.78-1.23h0a14.31,14.31,0,0,1-.67-1.36h0c-.1-.24-.2-.48-.29-.72s-.18-.48-.26-.73h0c-.08-.24-.16-.49-.23-.75h0c-.07-.25-.13-.51-.2-.77h0c-.06-.27-.11-.53-.16-.8s-.09-.55-.14-.82c-.66-4.55.06-10,2-15.83.22-.68.47-1.37.73-2.07.51-1.38,1.1-2.8,1.75-4.23.32-.71.66-1.43,1-2.15.89-1.8,1.88-3.63,3-5.47.65-1.1,1.33-2.21,2.05-3.32.24-.37.48-.74.73-1.11.49-.74,1-1.48,1.51-2.22h0A115.33,115.33,0,0,1,37.06,31.8a118.61,118.61,0,0,1,11.23-9.92l2.5,14.66H62.58A42.43,42.43,0,0,1,67.83,19,34.49,34.49,0,0,1,78.67,6.69L79,6.43c.63-.43,1.25-.82,1.87-1.19C71.15,5.84,59.35,10.67,47.88,19Z"/><path class="cls-1" d="M17.21,90.46H36.4a31.63,31.63,0,0,1-3.85,3.1,37.35,37.35,0,0,1-6.93,3.68,18.44,18.44,0,0,1-9.27-4.36c-.2-.17-.4-.36-.59-.55s-.37-.38-.55-.58c-6.05-6.81-4.86-19.31,2-33.06Zm7.07-6.64V46.93q-2.41,3.42-4.4,6.83v34H38.94a30.28,30.28,0,0,0,2.82-4Z"/><g class="cls-2"><path class="cls-1" d="M17.21,90.46H36.4a31.63,31.63,0,0,1-3.85,3.1,37.35,37.35,0,0,1-6.93,3.68,18.44,18.44,0,0,1-9.27-4.36c-.2-.17-.4-.36-.59-.55s-.37-.38-.55-.58c-6.05-6.81-4.86-19.31,2-33.06Zm7.07-6.64V46.93q-2.41,3.42-4.4,6.83v34H38.94a30.28,30.28,0,0,0,2.82-4Z"/></g><path class="cls-1" d="M98.47,11.35l0,0c.17.19.32.4.48.61-.15-.18-.27-.38-.43-.56Z"/><path class="cls-1" d="M98.9,11.91l.23.31,0,0C99,12.09,99,12,98.9,11.91Z"/><path class="cls-1" d="M65.51,83.75h23.6V77.36a62.52,62.52,0,0,1,7.15-28.71c7.52-14.52,9-28.28,2.87-36.43.28.39.53.8.78,1.23h0c.24.43.46.89.67,1.36h0c.1.24.2.47.29.71s.18.49.26.74h0c.08.25.15.5.23.76h0c.07.26.13.52.19.78h0c.07.26.12.53.17.8s.09.54.14.82c.66,4.55-.06,10-2,15.83-.23.68-.47,1.37-.73,2.06-.51,1.39-1.1,2.81-1.75,4.24-.32.71-.66,1.43-1,2.15-.88,1.8-1.87,3.63-3,5.47-.65,1.1-1.33,2.2-2,3.31-.24.38-.48.75-.73,1.12-.49.74-1,1.48-1.52,2.22h0A115.33,115.33,0,0,1,76.33,71,119.86,119.86,0,0,1,65.1,80.88L62.6,66.22H50.81a42.63,42.63,0,0,1-5.25,17.53A34.59,34.59,0,0,1,34.72,96.07l-.37.26c-.63.43-1.25.82-1.87,1.19C42.24,96.92,54,92.09,65.51,83.75Z"/><path class="cls-1" d="M96.18,12.29H77A31.75,31.75,0,0,1,80.84,9.2a37.35,37.35,0,0,1,6.93-3.68A18.44,18.44,0,0,1,97,9.88c.2.17.39.35.59.54s.37.39.54.59c6.06,6.81,4.87,19.31-2,33.05Zm-7.07,6.65V55.83c1.61-2.28,3.08-4.57,4.4-6.83V15H74.45a30.28,30.28,0,0,0-2.82,4Z"/><g class="cls-3"><path class="cls-1" d="M96.18,12.29H77A31.75,31.75,0,0,1,80.84,9.2a37.35,37.35,0,0,1,6.93-3.68A18.44,18.44,0,0,1,97,9.88c.2.17.39.35.59.54s.37.39.54.59c6.06,6.81,4.87,19.31-2,33.05Zm-7.07,6.65V55.83c1.61-2.28,3.08-4.57,4.4-6.83V15H74.45a30.28,30.28,0,0,0-2.82,4Z"/></g><ellipse class="cls-1" cx="181.66" cy="25.83" rx="7.97" ry="4.71" transform="translate(34.94 136.02) rotate(-45)"/><path class="cls-4" d="M187.22,37.07h0V83.79H176.1V48.19A11.12,11.12,0,0,1,187.22,37.07Z"/><path class="cls-4" d="M209.45,19.29v64.5H198.33V19.29Z"/><polygon class="cls-4" points="153.87 19.29 153.87 45.98 127.29 45.98 127.29 19.29 116.18 19.29 116.18 83.8 127.29 83.8 127.29 57.1 153.87 57.1 153.87 83.8 164.98 83.8 164.98 19.29 153.87 19.29"/><path class="cls-4" d="M382.73,36.92h-9.64L373,19.29a11.11,11.11,0,0,0-11.07,11.15l0,6.48h-6.3V47.57H362l.08,19.74c0,9.67,4.62,17.66,16,17.61a12.91,12.91,0,0,0,4.64-.75l0-10.59a25.84,25.84,0,0,1-2.63.19c-6.12,0-6.84-3.1-6.86-8.44l-.07-17.76h9.6Z"/><path class="cls-4" d="M267.48,60.48c0,12.26-7.87,24.51-21.62,24.51-6.91,0-11.38-2.85-14.18-6.63v5.43H220.57V19.29h11.11V42.6C234.48,38.73,239,36,245.86,36,259.61,36,267.48,48.22,267.48,60.48Zm-11.38,0c0-7.19-4.37-13.27-12-13.27s-12,6.08-12,13.27,4.38,13.27,12,13.27S256.1,67.67,256.1,60.48Z"/><path class="cls-4" d="M335.26,50.77V38.26H324.14V83.79h11.12V58.49c0-4.32.48-11.6,14-10.67V37.14C344.27,37.14,335.26,38.52,335.26,50.77Z"/><path class="cls-4" d="M294.63,36C282.38,36,272,45.82,272,60.47,272,74.66,281.68,85,296.38,85a24.1,24.1,0,0,0,13-3.88c3.72-2.43,7.32-6,8.18-11.14H306.28a12.74,12.74,0,0,1-9.9,4.61c-6.12,0-11-4.14-12.6-10.41h33.79C319.06,45.55,308,36,294.63,36ZM283.78,56c1.31-6,5.6-9.58,11-9.58,5.95,0,9.89,3.5,11,9.58Z"/></svg>