<svg id="Layer_1" data-name="Layer 1" xmlns="http://www.w3.org/2000/svg" xmlns:xlink="http://www.w3.org/1999/xlink" viewBox="0 0 284.36 284.98"><defs><style>.cls-1{fill:#4374ff;}.cls-2{clip-path:url(#clip-path);}.cls-3{clip-path:url(#clip-path-2);}</style><clipPath id="clip-path"><path class="cls-1" d="M29.58,253.94H84.32a92.52,92.52,0,0,1-11,8.82,104.72,104.72,0,0,1-19.78,10.49c-10.22-1.94-18.78-5.61-26.42-12.41-.59-.49-1.13-1-1.67-1.57s-1.08-1.1-1.57-1.68c-17.27-19.41-13.88-55,5.68-94.24ZM49.74,235V129.79q-6.87,9.78-12.54,19.49v97H91.54A88.28,88.28,0,0,0,99.6,235Z"/></clipPath><clipPath id="clip-path-2"><path class="cls-1" d="M254.78,31H200a91.6,91.6,0,0,1,11-8.83A105.3,105.3,0,0,1,230.8,11.72c10.22,1.94,18.78,5.62,26.42,12.42a22.48,22.48,0,0,1,1.67,1.57c.55.54,1.08,1.1,1.57,1.67,17.27,19.41,13.88,55.06-5.68,94.25ZM234.62,50v105.2q6.87-9.77,12.54-19.48v-97H192.82A89,89,0,0,0,184.76,50Z"/></clipPath></defs><path class="cls-1" d="M23.06,256.63a1.07,1.07,0,0,0,.14.16c-.47-.57-.91-1.16-1.35-1.76.41.53.77,1.09,1.2,1.59Z"/><path class="cls-1" d="M21.85,255c-.23-.29-.45-.58-.67-.88l.06.11Z"/><path class="cls-1" d="M117,50.19H49.75V68.42a178.1,178.1,0,0,1-20.39,81.85C7.91,191.67,3.8,230.91,21.18,254.15Q20,252.47,19,250.64s0,0,0,0c-.7-1.24-1.33-2.54-1.93-3.88h0c-.28-.68-.56-1.36-.82-2s-.51-1.38-.74-2.1h0c-.23-.7-.44-1.42-.65-2.16h0c-.19-.72-.38-1.46-.56-2.21h0c-.17-.75-.33-1.5-.47-2.27s-.26-1.55-.39-2.33c-1.88-13,.16-28.42,5.69-45.14.65-2,1.34-3.91,2.08-5.9,1.47-3.95,3.14-8,5-12.06.92-2,1.89-4.08,2.9-6.13q3.8-7.73,8.44-15.61c1.84-3.13,3.79-6.29,5.82-9.45.69-1.07,1.38-2.13,2.09-3.18q2.1-3.15,4.32-6.32a0,0,0,0,0,0,0A327.61,327.61,0,0,1,86.2,86.65a335.52,335.52,0,0,1,32-28.27l7.12,41.8H159c1.18-20.51,8.13-36.92,15-50a98.4,98.4,0,0,1,30.9-35.13c.35-.26.72-.51,1.07-.75,1.78-1.21,3.55-2.33,5.31-3.38C183.4,12.62,149.74,26.41,117,50.19Z"/><path class="cls-1" d="M29.58,253.94H84.32a92.52,92.52,0,0,1-11,8.82,104.72,104.72,0,0,1-19.78,10.49c-10.22-1.94-18.78-5.61-26.42-12.41-.59-.49-1.13-1-1.67-1.57s-1.08-1.1-1.57-1.68c-17.27-19.41-13.88-55,5.68-94.24ZM49.74,235V129.79q-6.87,9.78-12.54,19.49v97H91.54A88.28,88.28,0,0,0,99.6,235Z"/><g class="cls-2"><path class="cls-1" d="M29.58,253.94H84.32a92.52,92.52,0,0,1-11,8.82,104.72,104.72,0,0,1-19.78,10.49c-10.22-1.94-18.78-5.61-26.42-12.41-.59-.49-1.13-1-1.67-1.57s-1.08-1.1-1.57-1.68c-17.27-19.41-13.88-55,5.68-94.24ZM49.74,235V129.79q-6.87,9.78-12.54,19.49v97H91.54A88.28,88.28,0,0,0,99.6,235Z"/></g><path class="cls-1" d="M261.3,28.34a1,1,0,0,0-.14-.15c.47.56.91,1.16,1.35,1.75-.41-.52-.76-1.08-1.2-1.58C261.3,28.36,261.3,28.36,261.3,28.34Z"/><path class="cls-1" d="M262.51,29.94c.23.29.45.59.67.88l-.06-.1C262.92,30.45,262.71,30.2,262.51,29.94Z"/><path class="cls-1" d="M167.32,234.79h67.3V216.56A178.05,178.05,0,0,1,255,134.71c21.45-41.4,25.57-80.64,8.18-103.89.79,1.13,1.53,2.3,2.22,3.52,0,0,0,0,0,0,.7,1.24,1.33,2.54,1.93,3.88h0c.28.67.56,1.35.82,2s.51,1.39.74,2.1v0c.23.7.44,1.41.65,2.15h0c.2.73.38,1.46.56,2.21h0c.17.75.33,1.51.47,2.28s.27,1.55.39,2.33c1.88,13-.16,28.41-5.69,45.14q-1,2.91-2.08,5.89c-1.47,4-3.14,8-5,12.06-.92,2-1.89,4.08-2.9,6.14q-3.8,7.73-8.44,15.6c-1.84,3.14-3.79,6.29-5.82,9.46-.68,1.07-1.38,2.12-2.09,3.18q-2.1,3.15-4.32,6.32a0,0,0,0,0,0,0,329.2,329.2,0,0,1-36.46,43.15,336.91,336.91,0,0,1-32,28.27L159,184.79H125.39c-1.18,20.52-8.13,36.93-15,50a98.17,98.17,0,0,1-30.9,35.12c-.35.26-.71.52-1.07.76-1.78,1.21-3.55,2.33-5.31,3.38C101,272.35,134.62,258.56,167.32,234.79Z"/><path class="cls-1" d="M254.78,31H200a91.6,91.6,0,0,1,11-8.83A105.3,105.3,0,0,1,230.8,11.72c10.22,1.94,18.78,5.62,26.42,12.42a22.48,22.48,0,0,1,1.67,1.57c.55.54,1.08,1.1,1.57,1.67,17.27,19.41,13.88,55.06-5.68,94.25ZM234.62,50v105.2q6.87-9.77,12.54-19.48v-97H192.82A89,89,0,0,0,184.76,50Z"/><g class="cls-3"><path class="cls-1" d="M254.78,31H200a91.6,91.6,0,0,1,11-8.83A105.3,105.3,0,0,1,230.8,11.72c10.22,1.94,18.78,5.62,26.42,12.42a22.48,22.48,0,0,1,1.67,1.57c.55.54,1.08,1.1,1.57,1.67,17.27,19.41,13.88,55.06-5.68,94.25ZM234.62,50v105.2q6.87-9.77,12.54-19.48v-97H192.82A89,89,0,0,0,184.76,50Z"/></g></svg>